name analog
datacolumns 19
datarows 37
range 0.3675 0.3855
endheader
time	ground_force_vx	ground_force_vy	ground_force_vz	ground_force_px	ground_force_py	ground_force_pz	l_ground_force_vx	l_ground_force_vy	l_ground_force_vz	l_ground_force_px	l_ground_force_py	l_ground_force_pz	ground_torque_x	ground_torque_y	ground_torque_z	l_ground_torque_x	l_ground_torque_y	l_ground_torque_z
0.3675	-0.0	-0.0	-0.0	10.98984718322754	-4.53435754776001	-365.5636291503906	-8.363688468933105	3.785449504852295	-398.8168029785156	-0.0	-0.0	-0.0	-0.0	-0.0	-0.0	117714.5625	4994.7451171875	-15722.7685546875
0.368	-0.0	-0.0	-0.0	11.335265159606934	-4.551176071166992	-366.5679321289063	-8.598848342895508	3.532867431640625	-400.862060546875	-0.0	-0.0	-0.0	-0.0	-0.0	-0.0	117666.2890625	5038.35546875	-15693.41796875
0.3685	-0.0	-0.0	-0.0	11.954208374023438	-4.461899757385254	-367.9495239257813	-8.519211769104004	3.785978078842163	-398.7428588867188	-0.0	-0.0	-0.0	-0.0	-0.0	-0.0	117925.9375	5160.4697265625	-15555.0263671875
0.369	-0.0	-0.0	-0.0	12.492115020751951	-4.370030879974365	-365.8839416503906	-8.853509902954102	3.532867431640625	-399.4755554199219	-0.0	-0.0	-0.0	-0.0	-0.0	-0.0	118380.59375	5082.0146484375	-15722.4443359375
0.3695	-0.0	-0.0	-0.0	12.494613647460938	-4.084586143493652	-363.7956848144531	-8.60494613647461	3.350537061691284	-402.56060791015625	-0.0	-0.0	-0.0	-0.0	-0.0	-0.0	118203.6015625	5087.13037109375	-15550.1806640625
0.37	-0.0	-0.0	-0.0	12.675422668457031	-3.919229745864868	-364.49163818359375	-8.264080047607422	3.1795806884765625	-400.1387634277344	-0.0	-0.0	-0.0	-0.0	-0.0	-0.0	117825.6796875	5394.55078125	-15639.8896484375
0.3705	-0.0	-0.0	-0.0	12.952754974365234	-4.367389678955078	-363.4319152832031	-8.521729469299316	3.091259002685547	-399.4726867675781	-0.0	-0.0	-0.0	-0.0	-0.0	-0.0	118271.609375	5156.61181640625	-15633.6328125
0.371	-0.0	-0.0	-0.0	13.123499870300291	-4.26393985748291	-364.4722290039063	-8.699006080627441	3.085932970046997	-400.1277465820313	-0.0	-0.0	-0.0	-0.0	-0.0	-0.0	117946.59375	5263.31982421875	-15495.3974609375
0.3715	-0.0	-0.0	-0.0	13.73373794555664	-3.825593233108521	-364.8070983886719	-8.784994125366211	3.1821956634521484	-400.1174011230469	-0.0	-0.0	-0.0	-0.0	-0.0	-0.0	117551.171875	5373.1845703125	-15607.8466796875
0.372	-0.0	-0.0	-0.0	13.642369270324709	-3.480640649795532	-363.8385009765625	-8.964921951293945	2.9069507122039795	-399.7685241699219	-0.0	-0.0	-0.0	-0.0	-0.0	-0.0	117766.1328125	5429.7724609375	-15781.7578125
0.3725	-0.0	-0.0	-0.0	13.54013729095459	-3.389159917831421	-363.7578430175781	-8.967270851135254	2.912132740020752	-399.7884521484375	-0.0	-0.0	-0.0	-0.0	-0.0	-0.0	117633.828125	5368.0146484375	-15611.423828125
0.373	-0.0	-0.0	-0.0	13.205313682556152	-3.130345582962036	-365.8602294921875	-9.146992683410645	3.093693733215332	-398.7503967285156	-0.0	-0.0	-0.0	-0.0	-0.0	-0.0	117623.046875	5648.61083984375	-15900.73828125
0.3735	-0.0	-0.0	-0.0	12.757102966308594	-3.382787704467773	-364.8183898925781	-9.92374038696289	2.377596378326416	-399.40142822265625	-0.0	-0.0	-0.0	-0.0	-0.0	-0.0	117208.0703125	5604.1748046875	-15672.2412109375
0.374	-0.0	-0.0	-0.0	12.493520736694336	-3.47406268119812	-364.4576416015625	-9.494366645812988	2.6542561054229736	-399.7239990234375	-0.0	-0.0	-0.0	-0.0	-0.0	-0.0	117521.171875	6026.06494140625	-15731.1123046875
0.3745	-0.0	-0.0	-0.0	12.56879997253418	-3.4681873321533203	-364.481689453125	-9.667210578918455	3.0844948291778564	-398.4087524414063	-0.0	-0.0	-0.0	-0.0	-0.0	-0.0	117354.1953125	6022.271484375	-15818.541015625
0.375	-0.0	-0.0	-0.0	12.48566436767578	-3.2959229946136475	-365.1880493164063	-9.933415412902832	2.5569636821746826	-400.1105041503906	-0.0	-0.0	-0.0	-0.0	-0.0	-0.0	117521.65625	6005.15673828125	-15702.3583984375
0.3755	-0.0	-0.0	-0.0	11.961627006530762	-2.2449374198913574	-365.1880493164063	-10.195308685302734	2.73370361328125	-399.7617492675781	-0.0	-0.0	-0.0	-0.0	-0.0	-0.0	117385.9921875	5942.349609375	-15816.7744140625
0.376	-0.0	-0.0	-0.0	11.78475856781006	-2.763042449951172	-364.8420104980469	-9.76027011871338	2.7379722595214844	-400.1113586425781	-0.0	-0.0	-0.0	-0.0	-0.0	-0.0	117388.921875	6016.310546875	-15819.966796875
0.3765	-0.0	-0.0	-0.0	11.859833717346191	-2.668752670288086	-367.2594299316406	-9.84890842437744	2.8323006629943848	-400.7944030761719	-0.0	-0.0	-0.0	-0.0	-0.0	-0.0	117838.515625	5727.41064453125	-15816.5478515625
0.377	-0.0	-0.0	-0.0	11.944171905517578	-3.0287623405456543	-365.5280151367188	-9.941495895385742	2.5632832050323486	-400.4460144042969	-0.0	-0.0	-0.0	-0.0	-0.0	-0.0	117924.9609375	6122.87744140625	-15935.353515625
0.3775	-0.0	-0.0	-0.0	12.389060020446776	-2.4177117347717285	-366.575439453125	-10.109248161315918	2.6534152030944824	-402.8465576171875	-0.0	-0.0	-0.0	-0.0	-0.0	-0.0	117981.8125	5830.88330078125	-15790.3134765625
0.378	-0.0	-0.0	-0.0	12.387946128845217	-2.3220043182373047	-366.9235229492188	-10.026148796081545	3.0857925415039062	-402.2010498046875	-0.0	-0.0	-0.0	-0.0	-0.0	-0.0	118030.21875	6006.07275390625	-15904.4365234375
0.3785	-0.0	-0.0	-0.0	11.691049575805664	-2.1406190395355225	-365.2234497070313	-10.292232513427734	3.433901309967041	-402.8929138183594	-0.0	-0.0	-0.0	-0.0	-0.0	-0.0	118337.3671875	6106.67919921875	-15848.8330078125
0.379	-0.0	-0.0	-0.0	12.2119140625	-2.5791149139404297	-367.301513671875	-10.205159187316896	3.261094570159912	-401.1886901855469	-0.0	-0.0	-0.0	-0.0	-0.0	-0.0	118532.1328125	6172.59619140625	-15847.0263671875
0.3795	-0.0	-0.0	-0.0	11.508155822753906	-2.4806008338928223	-366.6116027832031	-9.947236061096191	2.6513044834136963	-402.58489990234375	-0.0	-0.0	-0.0	-0.0	-0.0	-0.0	118772.5390625	6239.84326171875	-15935.4365234375
0.38	-0.0	-0.0	-0.0	11.505537986755373	-1.7773772478103638	-366.9384460449219	-10.209745407104492	2.4777889251708984	-402.2415466308594	-0.0	-0.0	-0.0	-0.0	-0.0	-0.0	118714.6796875	6341.66455078125	-15876.8935546875
0.3805	-0.0	-0.0	-0.0	11.32231903076172	-1.164869785308838	-367.9939270019531	-10.469401359558104	2.911571979522705	-400.8260498046875	-0.0	-0.0	-0.0	-0.0	-0.0	-0.0	118491.6953125	6268.86962890625	-15846.7919921875
0.381	-0.0	-0.0	-0.0	11.326171875	-1.0743106603622437	-367.2977294921875	-10.379161834716797	2.384685516357422	-401.87353515625	-0.0	-0.0	-0.0	-0.0	-0.0	-0.0	118200.328125	6566.9912109375	-15846.8779296875
0.3815	-0.0	-0.0	-0.0	11.144624710083008	-0.7988321781158447	-367.2983093261719	-10.645294189453123	2.473007202148437	-401.8679809570313	-0.0	-0.0	-0.0	-0.0	-0.0	-0.0	118187.71875	6610.44580078125	-15791.0361328125
0.382	-0.0	-0.0	-0.0	10.442898750305176	-0.6249657273292542	-368.6906433105469	-10.477304458618164	2.0340816974639893	-399.4400634765625	-0.0	-0.0	-0.0	-0.0	-0.0	-0.0	118272.2890625	6389.9638671875	-16025.5166015625
0.3825	-0.0	-0.0	-0.0	10.345402717590332	-0.0130578037351369	-368.009521484375	-10.99364185333252	2.03139877319336	-400.1175231933594	-0.0	-0.0	-0.0	-0.0	-0.0	-0.0	118011.8828125	6990.27783203125	-15997.9580078125
0.383	-0.0	-0.0	-0.0	10.791674613952637	-0.6229811310768127	-367.6751098632813	-11.4387845993042	1.9455196857452397	-400.4769287109375	-0.0	-0.0	-0.0	-0.0	-0.0	-0.0	117559.390625	6683.36474609375	-16087.6025390625
0.3835	-0.0	-0.0	-0.0	10.34488296508789	-0.354755163192749	-368.345703125	-11.17520236968994	1.6781120300292969	-401.85498046875	-0.0	-0.0	-0.0	-0.0	-0.0	-0.0	118030.1171875	6585.77783203125	-16174.4208984375
0.384	-0.0	-0.0	-0.0	10.169175148010254	-0.3573443591594696	-369.41644287109375	-10.915899276733398	1.50258207321167	-401.17523193359375	-0.0	-0.0	-0.0	-0.0	-0.0	-0.0	117710.265625	6887.63427734375	-16085.294921875
0.3845	-0.0	-0.0	-0.0	9.724696159362791	0.350521981716156	-367.6632995605469	-11.005366325378418	1.7612274885177612	-400.4851684570313	-0.0	-0.0	-0.0	-0.0	-0.0	-0.0	117829.2265625	7050.76123046875	-16201.8486328125
0.385	-0.0	-0.0	-0.0	10.165786743164062	-0.621809184551239	-368.3611450195313	-11.352985382080078	1.503454566001892	-401.5165100097656	-0.0	-0.0	-0.0	-0.0	-0.0	-0.0	117713.6953125	6917.6416015625	-16202.9267578125
0.3855	-0.0	-0.0	-0.0	9.81252670288086	-0.1751182675361633	-367.30963134765625	-11.0906982421875	1.6781120300292969	-401.17523193359375	-0.0	-0.0	-0.0	-0.0	-0.0	-0.0	117703.734375	6992.23974609375	-16115.3447265625
